                            =!Kharay Small Rips Rocker'zzz!=



       Next 2007 Bluray 720p Dual Audio 6Channel [Eng-Hindi] - Henry[-=KSRR=-]




A Las Vegas magician who can see into the future is pursued by FBI agents seeking to use his abilities to prevent a nuclear terrorist attack. 




General INFO:

Format                           : Matroska
File size                        : 720 MiB
Duration                         : 1h 36mn
Overall bit rate                 : 1 047 Kbps
Movie name                       : Next 2007 Bluray 720p Dual Audio 6Channel - Henry[-=KSRR=-]
Encoded date                     : UTC 2011-03-10 16:41:00
Writing application              : mkvmerge v4.2.0 ('No Talking') built on Jul 28 2010 18:38:23
Writing library                  : libebml v1.0.0 + libmatroska v1.0.0

Video
ID                               : 1
Format                           : AVC
Format/Info                      : Advanced Video Codec
Format profile                   : High@L3.1
Format settings, CABAC           : Yes
Format settings, ReFrames        : 4 frames
Muxing mode                      : Container profile=Unknown@3.1
Codec ID                         : V_MPEG4/ISO/AVC
Duration                         : 1h 36mn
Bit rate                         : 599 Kbps
Width                            : 1 280 pixels
Height                           : 528 pixels
Display aspect ratio             : 2.40:1
Frame rate                       : 23.976 fps
Color space                      : YUV
Chroma subsampling               : 4:2:0
Bit depth                        : 8 bits
Scan type                        : Progressive
Bits/(Pixel*Frame)               : 0.037
Stream size                      : 398 MiB (55%)
Title                            : Ripped By Henry[-=KSRR=-]
Writing library                  : x264 


Audio #1
ID                               : 2
Format                           : AC-3
Format/Info                      : Audio Coding 3
Mode extension                   : CM (complete main)
Codec ID                         : A_AC3
Duration                         : 1h 36mn
Bit rate mode                    : Constant
Bit rate                         : 224 Kbps
Channel(s)                       : 6 channels
Channel positions                : Front: L C R, Side: L R, LFE
Sampling rate                    : 48.0 KHz
Bit depth                        : 16 bits
Stream size                      : 154 MiB (21%)
Title                            : Henry[-=KSRR=-]

Audio #2
ID                               : 3
Format                           : AC-3
Format/Info                      : Audio Coding 3
Mode extension                   : CM (complete main)
Codec ID                         : A_AC3
Duration                         : 1h 36mn
Bit rate mode                    : Constant
Bit rate                         : 224 Kbps
Channel(s)                       : 6 channels
Channel positions                : Front: L C R, Side: L R, LFE
Sampling rate                    : 48.0 KHz
Bit depth                        : 16 bits
Stream size                      : 154 MiB (21%)
Title                            : Henry[-=KSRR=-]
Language                         : Hindi


Screens:
 
http://www.freeuploadimages.org/images/htgus4s27pi4olciu1f2.png 
http://www.freeuploadimages.org/images/u347wqfgl0cvj403thv.png 
http://www.freeuploadimages.org/images/soi43v3orp6kenqqhix.png 
http://www.freeuploadimages.org/images/d0ucu9rt75mwszhmcvt.png 
http://www.freeuploadimages.org/images/6gesysz9w7rb4jv0yyo.png 
http://www.freeuploadimages.org/images/eizp8wv5oeeqtpxp4byy.png 
http://www.freeuploadimages.org/images/u8d1t2eyvfgox148en4.png 
http://www.freeuploadimages.org/images/qkivp41hvkwxwdghacth.png



Sample Include In Torrent


..................................Enjoy...........................................